<svg id="Camada_1" data-name="Camada 1" xmlns="http://www.w3.org/2000/svg" viewBox="0 0 1833.34 1425.54"><path d="M1524.27,852.74c-5.78-4.73-12-9-17.28-14.28Q1300.34,632,1093.86,425.39c-29.84-29.85-41.27-65.25-28.54-106,11.89-38.08,38.8-61.53,77.84-69.6,32.7-6.75,61.75,2.5,86.95,24,6.18,5.27,11.73,11.29,17.49,17Q1545,587.89,1842.39,885c44.24,44.17,44.77,106.31.88,150.18q-300.93,300.72-601.85,601.46c-28.92,28.94-62,43.46-103,33.36-74.22-18.3-102.73-105.84-53.7-164.47,5.21-6.23,11.13-11.88,16.88-17.64q202.93-203,406-405.81c5.2-5.2,11.86-8.94,17.83-13.36l-3-6.32h-23.08q-673.78,0-1347.57,0c-54.29,0-93.67-28.8-106-77.06-15.82-61.62,28.9-122.84,92.45-126.44,7.44-.42,14.93-.2,22.39-.21H1521.65Z" transform="translate(-42.54 -247.63)"/></svg>